<svg width="81" height="80" fill="none" xmlns="http://www.w3.org/2000/svg"><path d="M61.182 72.31c0 1.12.036 2.133-.017 3.128-.054 1.049-.747 1.778-1.69 1.902a1.902 1.902 0 01-2.044-1.262c-.106-.302-.124-.64-.124-.96-.018-.889 0-1.795 0-2.826h-2.685c-1.617 0-2.31-.712-2.31-2.347v-9.422c0-3.272 1.51-5.53 4.48-6.845.23-.106.515-.426.515-.658.035-5.6.018-11.2.018-16.8 0-.07-.054-.142-.107-.284-4.302 5.475-9.831 8.48-16.729 8.462-6.898 0-12.444-2.987-16.8-8.551a7.524 7.524 0 00-.053.764c0 5.387 0 10.756-.018 16.143 0 .55.16.782.676 1.013 2.755 1.191 4.266 3.325 4.337 6.347.09 3.324.036 6.666.018 9.99 0 1.423-.747 2.17-2.151 2.188-.907.017-1.831 0-2.88 0 0 1.12.036 2.168-.018 3.217-.035.96-.764 1.671-1.689 1.796-.818.106-1.724-.41-1.99-1.227-.125-.373-.16-.8-.16-1.209-.019-.835 0-1.67 0-2.595-1.032 0-1.974.017-2.916 0-1.263-.018-2.063-.73-2.08-2.027-.036-3.431-.09-6.88.035-10.311.107-2.969 1.653-5.084 4.409-6.205.605-.248.551-.622.551-1.084 0-9.529-.071-19.058.018-28.587.053-6.168 1.938-11.715 6.613-15.91C32.525 2.655 39.69 1.393 47.37 3.9c7.556 2.471 11.911 8.018 13.404 15.823.32 1.67.445 3.413.445 5.12.035 9.262.018 18.506.018 27.768 0 .623.142.907.764 1.192 2.702 1.19 4.16 3.36 4.231 6.329.09 3.324.036 6.666.018 9.99-.018 1.423-.782 2.134-2.204 2.134-.96.053-1.85.053-2.863.053zM40.49 6.69c-8.462-.017-16.587 5.796-16.871 16.996-.231 9.138 7.502 16.818 16.729 16.889 9.244.071 17.049-7.52 16.907-16.782-.178-11.005-8.107-17.05-16.765-17.103zM24.685 68.345c0-2.862.053-5.636-.018-8.41-.036-1.208-.782-2.08-1.902-2.524-2.045-.817-4.125.658-4.178 3.005-.036 2.187-.018 4.356-.018 6.542v1.387h6.116zm37.51-.018c.036-.124.072-.195.072-.267 0-2.613.053-5.244-.018-7.857-.053-1.832-1.422-3.058-3.164-3.005-1.672.053-2.916 1.369-2.916 3.165-.018 2.453 0 4.906 0 7.36 0 .213.036.409.053.586 2.045.018 4.018.018 5.974.018z" fill="#131313"/><path d="M51.209 23.456c.035 6.187-4.605 10.916-10.738 10.951-6.133.036-10.809-4.711-10.826-10.951 0-5.867 4.87-10.756 10.737-10.773 5.92-.018 10.791 4.853 10.827 10.773zm-17.6.107c-.018 3.982 2.933 6.969 6.827 6.969 3.875 0 6.809-2.987 6.809-6.916 0-3.982-2.952-7.004-6.827-6.987-3.858.018-6.791 3.005-6.809 6.934z" fill="#131313"/></svg>