<svg width="24" height="24" fill="none" xmlns="http://www.w3.org/2000/svg"><g id="md-calendar" fill="#131313"><path id="Vector (Stroke)" fill-rule="evenodd" clip-rule="evenodd" d="M8 2a1 1 0 011 1v1h6V3a1 1 0 112 0v1h2a3 3 0 013 3v12a3 3 0 01-3 3H5a3 3 0 01-3-3V7a3 3 0 013-3h2V3a1 1 0 011-1zM7 6H5a1 1 0 00-1 1v12a1 1 0 001 1h14a1 1 0 001-1V7a1 1 0 00-1-1h-2v1a1 1 0 11-2 0V6H9v1a1 1 0 01-2 0V6z"/><path id="Ellipse 25" d="M9 11a1 1 0 11-2 0 1 1 0 012 0z"/><path id="Ellipse 28" d="M9 15a1 1 0 11-2 0 1 1 0 012 0z"/><path id="Ellipse 26" d="M13 11a1 1 0 11-2 0 1 1 0 012 0z"/><path id="Ellipse 29" d="M13 15a1 1 0 11-2 0 1 1 0 012 0z"/><path id="Ellipse 27" d="M17 11a1 1 0 11-2 0 1 1 0 012 0z"/></g></svg>