<svg width="24" height="24" fill="none" xmlns="http://www.w3.org/2000/svg"><g id="md-music"><path id="Vector" fill-rule="evenodd" clip-rule="evenodd" d="M20 10.18l-10 1.667V18.5c0 1.977-1.827 3.5-4 3.5s-4-1.523-4-3.5S3.827 15 6 15c.723 0 1.408.169 2 .467V4.153L22 1.82V17.5c0 1.977-1.827 3.5-4 3.5s-4-1.523-4-3.5 1.827-3.5 4-3.5c.723 0 1.408.169 2 .467V10.18zM6 20c1.14 0 2-.716 2-1.5S7.14 17 6 17c-1.14 0-2 .716-2 1.5S4.86 20 6 20zm12-1c1.14 0 2-.716 2-1.5s-.86-1.5-2-1.5c-1.14 0-2 .716-2 1.5s.86 1.5 2 1.5zM10 5.847V9.82l10-1.667V4.18L10 5.848z" fill="#DB1F26"/></g></svg>