<svg width="24" height="24" fill="none" xmlns="http://www.w3.org/2000/svg"><g id="md-tv"><path id="Vector" d="M20.25 4.5h-6.443l1.718-1.718a.75.75 0 00-1.058-1.057L12 4.192 9.533 1.717a.75.75 0 00-1.058 1.058L10.193 4.5H3.75A2.25 2.25 0 001.5 6.75v10.5a2.25 2.25 0 002.25 2.25h7.5V21H9a.75.75 0 100 1.5h6a.75.75 0 000-1.5h-2.25v-1.5h7.5a2.25 2.25 0 002.25-2.25V6.75a2.25 2.25 0 00-2.25-2.25zM21 17.25a.75.75 0 01-.75.75H3.75a.75.75 0 01-.75-.75V6.75A.75.75 0 013.75 6h16.5a.75.75 0 01.75.75v10.5z" fill="#DB1F26" stroke="#DB1F26" stroke-width=".3"/></g></svg>