<svg width="24" height="24" fill="none" xmlns="http://www.w3.org/2000/svg"><g id="md-transport" clip-path="url(#clip0_232_4137)" stroke="#DB1F26" stroke-width="1.7" stroke-linecap="round" stroke-linejoin="round"><path id="Vector" d="M6 19a2 2 0 100-4 2 2 0 000 4z"/><path id="Vector_2" d="M18 19a2 2 0 100-4 2 2 0 000 4z"/><path id="Vector_3" d="M4 17H2V6a1 1 0 011-1h14c1.326 0 2.598.737 3.535 2.05C21.473 8.363 22 10.143 22 12v5h-2m-4 0H8"/><path id="Vector_4" d="M16 5l1.5 7H22"/><path id="Vector_5" d="M2 10h15"/><path id="Vector_6" d="M7 5v5"/><path id="Vector_7" d="M12 5v5"/></g><defs><clipPath id="clip0_232_4137"><path fill="#fff" d="M0 0h24v24H0z"/></clipPath></defs></svg>