<svg width="24" height="24" fill="none" xmlns="http://www.w3.org/2000/svg"><g id="md-zoom"><g id="Vector"><mask id="path-1-inside-1_231_3513" fill="#fff"><path d="M4 9a.965.965 0 01-.712-.288A.965.965 0 013 8V4c0-.283.096-.521.288-.713A.967.967 0 014 3h4a.97.97 0 01.713.287A.97.97 0 019 4a.97.97 0 01-.287.712A.968.968 0 018 5H6.4l2.425 2.425A.918.918 0 019.1 8.1c0 .267-.1.5-.3.7a.948.948 0 01-.7.275.948.948 0 01-.7-.275L5 6.4V8a.97.97 0 01-.287.712A.968.968 0 014 9zm11.2-.2a.948.948 0 01-.275-.7.95.95 0 01.275-.7L17.6 5H16a.965.965 0 01-.712-.288A.965.965 0 0115 4c0-.283.096-.521.288-.713A.967.967 0 0116 3h4a.97.97 0 01.712.287c.192.192.288.43.288.713v4c0 .283-.096.52-.288.712A.965.965 0 0120 9a.965.965 0 01-.712-.288A.965.965 0 0119 8V6.4l-2.425 2.425a.918.918 0 01-.675.275.96.96 0 01-.7-.3zM16 21a.965.965 0 01-.712-.288A.965.965 0 0115 20c0-.283.096-.52.288-.712A.965.965 0 0116 19h1.6l-2.425-2.425a.918.918 0 01-.275-.675c0-.267.1-.5.3-.7a.948.948 0 01.7-.275.95.95 0 01.7.275l2.4 2.4V16c0-.283.096-.521.288-.713A.967.967 0 0120 15a.97.97 0 01.712.287c.192.192.288.43.288.713v4c0 .283-.096.52-.288.712A.965.965 0 0120 21h-4zM4 21a.965.965 0 01-.712-.288A.965.965 0 013 20v-4c0-.283.096-.521.288-.713A.967.967 0 014 15a.97.97 0 01.713.287A.97.97 0 015 16v1.6l2.425-2.425A.918.918 0 018.1 14.9c.267 0 .5.1.7.3a.948.948 0 01.275.7.948.948 0 01-.275.7L6.4 19H8c.283 0 .521.096.713.288A.967.967 0 019 20a.97.97 0 01-.287.712A.968.968 0 018 21H4z"/></mask><path d="M4 9a.965.965 0 01-.712-.288A.965.965 0 013 8V4c0-.283.096-.521.288-.713A.967.967 0 014 3h4a.97.97 0 01.713.287A.97.97 0 019 4a.97.97 0 01-.287.712A.968.968 0 018 5H6.4l2.425 2.425A.918.918 0 019.1 8.1c0 .267-.1.5-.3.7a.948.948 0 01-.7.275.948.948 0 01-.7-.275L5 6.4V8a.97.97 0 01-.287.712A.968.968 0 014 9zm11.2-.2a.948.948 0 01-.275-.7.95.95 0 01.275-.7L17.6 5H16a.965.965 0 01-.712-.288A.965.965 0 0115 4c0-.283.096-.521.288-.713A.967.967 0 0116 3h4a.97.97 0 01.712.287c.192.192.288.43.288.713v4c0 .283-.096.52-.288.712A.965.965 0 0120 9a.965.965 0 01-.712-.288A.965.965 0 0119 8V6.4l-2.425 2.425a.918.918 0 01-.675.275.96.96 0 01-.7-.3zM16 21a.965.965 0 01-.712-.288A.965.965 0 0115 20c0-.283.096-.52.288-.712A.965.965 0 0116 19h1.6l-2.425-2.425a.918.918 0 01-.275-.675c0-.267.1-.5.3-.7a.948.948 0 01.7-.275.95.95 0 01.7.275l2.4 2.4V16c0-.283.096-.521.288-.713A.967.967 0 0120 15a.97.97 0 01.712.287c.192.192.288.43.288.713v4c0 .283-.096.52-.288.712A.965.965 0 0120 21h-4zM4 21a.965.965 0 01-.712-.288A.965.965 0 013 20v-4c0-.283.096-.521.288-.713A.967.967 0 014 15a.97.97 0 01.713.287A.97.97 0 015 16v1.6l2.425-2.425A.918.918 0 018.1 14.9c.267 0 .5.1.7.3a.948.948 0 01.275.7.948.948 0 01-.275.7L6.4 19H8c.283 0 .521.096.713.288A.967.967 0 019 20a.97.97 0 01-.287.712A.968.968 0 018 21H4z" fill="#131313"/><path d="M3.288 8.712L18.045-5.994l-.026-.025-.025-.026L3.288 8.712zm5.425-5.425L23.47-11.419l-.026-.025-.025-.026L8.713 3.287zM6.4 5v-20.833h-50.296L-8.331 19.73 6.4 5zm2.425 2.425L-5.906 22.156 8.825 7.425zM5 6.4L19.731-8.331l-35.564-35.565V6.4H5zm10.2 1L.469-7.331 15.2 7.4zM17.6 5l14.731 14.731 35.565-35.564H17.6V5zm-2.312-.288L30.045-9.994l-.026-.025-.025-.026L15.288 4.712zm5.424 4L6.006-6.045l-.025.026-.026.025L20.712 8.712zm-1.424 0L34.045-5.994l-.026-.025-.025-.026L19.288 8.712zM19 6.4h20.833v-50.296L4.27-8.331 19 6.4zm-2.425 2.425l14.731 14.731L16.575 8.825zm-1.287 11.887L30.045 6.006l-.026-.025-.025-.026-14.706 14.757zm0-1.424l14.706 14.757.025-.026.026-.025-14.757-14.706zM17.6 19v20.833h50.296L32.331 4.27 17.6 19zm-2.425-2.425L.444 31.306l14.731-14.731zM16.6 15.2L31.331.469 16.6 15.2zm2.4 2.4L4.269 32.331l35.564 35.565V17.6H19zm1.712 3.112L6.006 5.955l-.025.026-.026.025 14.757 14.706zm-17.424 0L18.045 6.006l-.026-.025-.025-.026L3.288 20.712zm1.425-5.425L19.47.581l-.026-.025L19.42.53 4.713 15.287zM5 17.6h-20.833v50.296L19.73 32.331 5 17.6zm3.8-1l14.731 14.731L8.8 16.6zM6.4 19L-8.331 4.269l-35.565 35.564H6.4V19zM4-11.833a19.876 19.876 0 0114.045 5.84l-29.514 29.41A21.797 21.797 0 004 29.834v-41.666zm13.994 5.788A19.874 19.874 0 0123.834 8h-41.667a21.796 21.796 0 006.415 15.469L17.994-6.045zM23.834 8V4h-41.667v4h41.666zm0-4a19.872 19.872 0 01-5.814 14.018l-29.463-29.462A21.8 21.8 0 00-17.833 4h41.666zm-5.815 14.018A19.875 19.875 0 014 23.833v-41.666a21.798 21.798 0 00-15.443 6.389l29.462 29.462zM4 23.833h4v-41.666H4v41.666zm4 0a19.87 19.87 0 01-13.993-5.79L23.42-11.469A21.802 21.802 0 008-17.833v41.666zm-14.044-5.84A19.87 19.87 0 01-11.834 4h41.667c0-5.518-2.088-11.13-6.363-15.419L-6.044 17.993zM-11.834 4a19.875 19.875 0 015.815-14.02l29.463 29.463A21.798 21.798 0 0029.834 4h-41.667zm5.816-14.02A19.87 19.87 0 018-15.832v41.666a21.8 21.8 0 0015.444-6.39L-6.018-10.019zM8-15.832H6.4v41.666H8v-41.666zM-8.331 19.73l2.425 2.425L23.556-7.306l-2.425-2.425L-8.33 19.73zm2.425 2.425A19.91 19.91 0 01-11.733 8.1h41.666a21.75 21.75 0 00-6.377-15.406L-5.906 22.156zM-11.733 8.1A19.892 19.892 0 01-5.931-5.931L23.53 23.53c3.844-3.844 6.402-9.278 6.402-15.431h-41.666zm5.802-14.031a19.925 19.925 0 016.8-4.453A19.785 19.785 0 018.1-11.758v41.666c5.244 0 10.96-1.905 15.431-6.377L-5.93-5.93zM8.1-11.758c2.128 0 4.625.35 7.23 1.374a19.925 19.925 0 016.801 4.453L-7.33 23.53c4.47 4.474 10.186 6.378 15.43 6.378v-41.666zm14.031 5.827l-2.4-2.4L-9.73 21.13l2.4 2.4L22.13-5.93zM-15.833 6.4V8h41.666V6.4h-41.666zm0 1.6a19.875 19.875 0 015.815-14.02l29.462 29.463A21.799 21.799 0 0025.834 8h-41.667zm5.815-14.02A19.87 19.87 0 014-11.832v41.666a21.8 21.8 0 0015.444-6.39L-10.018-6.019zm39.95.089a19.926 19.926 0 014.452 6.8A19.785 19.785 0 0135.758 8.1H-5.908c0 5.244 1.904 10.96 6.377 15.431L29.93-5.93zM35.757 8.1c0 2.128-.35 4.625-1.374 7.23a19.926 19.926 0 01-4.453 6.801L.47-7.33C-4.004-2.86-5.908 2.856-5.908 8.1h41.666zM29.93 22.131l2.4-2.4L2.87-9.73l-2.4 2.4 29.46 29.46zM17.6-15.833H16v41.666h1.6v-41.666zm-1.6 0a19.875 19.875 0 0114.045 5.84L.531 19.416A21.796 21.796 0 0016 25.834v-41.666zm13.994 5.788A19.874 19.874 0 0135.834 4H-5.834A21.796 21.796 0 00.582 19.469l29.412-29.514zM35.834 4a19.872 19.872 0 01-5.814 14.018L.556-11.444A21.8 21.8 0 00-5.833 4h41.666zm-5.815 14.018A19.875 19.875 0 0116 23.833v-41.666A21.798 21.798 0 00.557-11.444l29.462 29.462zM16 23.833h4v-41.666h-4v41.666zm4 0a19.875 19.875 0 01-14.02-5.815l29.463-29.462A21.799 21.799 0 0020-17.834v41.667zM5.98 18.018A19.87 19.87 0 01.168 4h41.666a21.8 21.8 0 00-6.39-15.444L5.981 18.018zM.168 4v4h41.666V4H.167zm0 4a19.875 19.875 0 015.84-14.045l29.41 29.514A21.797 21.797 0 0041.834 8H.167zM5.955-5.994A19.875 19.875 0 0120-11.834v41.667a21.796 21.796 0 0015.469-6.415L5.955-5.994zM20-11.834a19.876 19.876 0 0114.045 5.84L4.531 23.418A21.796 21.796 0 0020 29.833v-41.666zm13.994 5.789A19.874 19.874 0 0139.834 8H-1.834a21.796 21.796 0 006.415 15.469L33.994-6.045zM39.834 8V6.4H-1.834V8h41.666zM4.268-8.331L1.844-5.906l29.462 29.462 2.425-2.425L4.27-8.33zM1.844-5.906A19.91 19.91 0 0115.9-11.733v41.666a21.75 21.75 0 0015.406-6.377L1.844-5.906zM15.9-11.733c2.543 0 5.225.492 7.832 1.61a19.8 19.8 0 016.2 4.192L.468 23.53c3.844 3.844 9.278 6.402 15.431 6.402v-41.666zm.1 11.9a19.876 19.876 0 0114.045 5.84L.531 35.416A21.797 21.797 0 0016 41.834V.167zm13.994 5.788A19.874 19.874 0 0135.834 20H-5.834A21.796 21.796 0 00.582 35.469L29.994 5.955zM35.834 20a19.875 19.875 0 01-5.84 14.045L.582 4.531A21.796 21.796 0 00-5.833 20h41.666zm-5.789 13.994A19.875 19.875 0 0116 39.834V-1.834A21.796 21.796 0 00.531 4.582l29.514 29.412zM16 39.834h1.6V-1.834H16v41.666zM32.331 4.268l-2.425-2.425L.444 31.306l2.425 2.425L32.33 4.27zm-2.425-2.425A19.91 19.91 0 0135.733 15.9H-5.933A21.75 21.75 0 00.444 31.306L29.906 1.844zM35.733 15.9a19.88 19.88 0 01-1.61 7.832 19.8 19.8 0 01-4.192 6.2L.47.468C-3.375 4.313-5.933 9.747-5.933 15.9h41.666zm-5.802 14.031a19.925 19.925 0 01-6.8 4.453 19.784 19.784 0 01-7.231 1.374V-5.908C10.656-5.908 4.94-4.004.469.469L29.93 29.93zM15.9 35.758c-2.128 0-4.625-.35-7.23-1.374a19.926 19.926 0 01-6.801-4.453L31.33.47C26.86-4.004 21.144-5.908 15.9-5.908v41.666zM1.869 29.931l2.4 2.4L33.73 2.87l-2.4-2.4L1.87 29.93zM39.833 17.6V16H-1.833v1.6h41.666zm0-1.6a19.87 19.87 0 01-5.814 14.018L4.557.556A21.8 21.8 0 00-1.833 16h41.666zM34.02 30.018A19.875 19.875 0 0120 35.833V-5.833A21.798 21.798 0 004.557.556l29.462 29.462zM20 35.833a19.875 19.875 0 01-14.02-5.815L35.444.556A21.798 21.798 0 0020-5.834v41.667zM5.98 30.018A19.87 19.87 0 01.168 16h41.666A21.8 21.8 0 0035.443.556L5.981 30.018zM.168 16v4h41.666v-4H.167zm0 4a19.875 19.875 0 015.84-14.045l29.41 29.514A21.797 21.797 0 0041.834 20H.167zM5.955 6.006A19.875 19.875 0 0120 .166v41.667a21.797 21.797 0 0015.469-6.415L5.955 6.006zM20 .166h-4v41.667h4V.167zm-16 0a19.876 19.876 0 0114.045 5.84l-29.514 29.412A21.797 21.797 0 004 41.833V.167zm13.994 5.789A19.874 19.874 0 0123.834 20h-41.667a21.796 21.796 0 006.415 15.469L17.994 5.955zM23.834 20v-4h-41.667v4h41.666zm0-4a19.87 19.87 0 01-5.814 14.018L-11.444.556A21.8 21.8 0 00-17.833 16h41.666zm-5.815 14.018A19.875 19.875 0 014 35.833V-5.833A21.798 21.798 0 00-11.443.556l29.462 29.462zM4 35.833a19.87 19.87 0 01-13.993-5.79L19.42.531A21.801 21.801 0 004-5.833v41.666zm-14.044-5.84A19.87 19.87 0 01-15.834 16h41.667c0-5.518-2.088-11.13-6.363-15.419l-29.514 29.412zM-15.834 16v1.6h41.667V16h-41.666zm35.565 16.331l2.425-2.425L-7.306.444l-2.425 2.425L19.73 32.33zm2.425-2.425A19.91 19.91 0 018.1 35.733V-5.933A21.75 21.75 0 00-7.306.444l29.462 29.462zM8.1 35.733a19.892 19.892 0 01-14.031-5.802L23.53.47C19.687-3.375 14.253-5.933 8.1-5.933v41.666zm-14.031-5.802a19.925 19.925 0 01-4.453-6.8 19.784 19.784 0 01-1.374-7.231h41.666c0-5.244-1.905-10.96-6.377-15.431L-5.93 29.93zM-11.758 15.9c0-2.128.35-4.625 1.374-7.23a19.925 19.925 0 014.453-6.801L23.53 31.33c4.473-4.472 6.377-10.187 6.377-15.431h-41.666zm5.827-14.031l-2.4 2.4L21.13 33.73l2.4-2.4L-5.93 1.87zM6.4 39.833H8V-1.833H6.4v41.666zm1.6 0A19.87 19.87 0 01-6.018 34.02L23.444 4.557A21.8 21.8 0 008-1.833v41.666zM-6.018 34.02A19.875 19.875 0 01-11.833 20h41.666c0-5.519-2.09-11.145-6.389-15.443L-6.018 34.019zM-11.833 20A19.875 19.875 0 01-6.018 5.98l29.462 29.463A21.798 21.798 0 0029.834 20h-41.667zm5.815-14.02A19.87 19.87 0 018 .168v41.666a21.8 21.8 0 0015.444-6.39L-6.018 5.981zM8 .168H4v41.666h4V.167z" fill="#131313" mask="url(#path-1-inside-1_231_3513)"/></g></g></svg>