<svg width="32" height="33" fill="none" xmlns="http://www.w3.org/2000/svg"><g id="sm-location-marker"><path id="Vector" fill-rule="evenodd" clip-rule="evenodd" d="M8.082 7.003a11.22 11.22 0 017.92-3.27c2.97 0 5.82 1.177 7.92 3.27a11.145 11.145 0 013.28 7.894c0 2.96-1.18 5.8-3.28 7.894l-7.92 7.893-7.92-7.893a11.13 11.13 0 010-15.787zm7.92 11.083c.848 0 1.662-.336 2.262-.934a3.184 3.184 0 000-4.51 3.205 3.205 0 00-4.525 0 3.184 3.184 0 000 4.51c.6.598 1.414.934 2.263.934z" fill="#DB1F26"/></g></svg>