<svg width="20" height="20" fill="none" xmlns="http://www.w3.org/2000/svg"><path fill-rule="evenodd" clip-rule="evenodd" d="M9.383 3.076A1 1 0 0110 4v12a1 1 0 01-1.707.707L4.586 13H2a1 1 0 01-1-1V8a1 1 0 011-1h2.586l3.707-3.707a1 1 0 011.09-.217zm5.274-.147a1 1 0 011.414 0A9.973 9.973 0 0119 10a9.973 9.973 0 01-2.929 7.071 1 1 0 01-1.414-1.414A7.971 7.971 0 0017 10a7.97 7.97 0 00-2.343-5.657 1 1 0 010-1.414zm-2.829 2.828a1 1 0 011.415 0A5.982 5.982 0 0115 10a5.982 5.982 0 01-1.757 4.243 1 1 0 11-1.415-1.415A3.985 3.985 0 0013 10a3.982 3.982 0 00-1.172-2.828 1.001 1.001 0 010-1.415z" fill="#fff"/></svg>