<svg width="81" height="80" fill="none" xmlns="http://www.w3.org/2000/svg"><path d="M13.833 13.493v53.014c0 4.266 3.022 7.253 7.342 7.27h24c4.303 0 7.307-2.968 7.325-7.2V50s0-2-2-2c-2.116 0-2.231 2-2.231 2v4.933H18.064l-.017-.515c0-.107-.018-.196-.018-.285V13.37c0-1.85 1.173-2.987 3.075-2.987h21.53s1.866.118 1.866-2.08c0-2.08-1.867-2.08-1.867-2.08H21.175c-4.32 0-7.342 2.987-7.342 7.271zm4.196 48.214v-2.543h30.169l.035.32c0 .054.018.09.018.143.018.106.036.23.036.337v6.72c-.018 1.743-1.21 2.934-2.97 2.934H21.034c-1.777 0-2.969-1.174-2.986-2.916-.018-1.653-.018-3.27-.018-4.995z" fill="#131313"/><path d="M64.998 24.107c2.684-4.036 2.88-8.338.604-12.8-2.08-4.09-6.542-5.903-10.613-4.303-3.822 1.494-6.471 4.196-7.876 8.054-.8 2.186-.55 4.409.712 6.418.337.533.746 1.013 1.173 1.528.195.231.409.48.604.73l.196.248-3.698 3.662-.249-.32c-.053-.053-.089-.124-.142-.177a1.746 1.746 0 00-.213-.267c-1.618-1.564-3.61-2.382-5.636-2.382a8.027 8.027 0 00-3.324.729c-3.094 1.369-5.44 3.644-6.987 6.773-1.529 3.093-1.013 6.204 1.44 8.8 3.84 4.053 10.756 4.8 15.413 1.653 7.698-5.209 13.956-11.378 18.596-18.346zM44.108 38.95c-1.243.853-2.772 1.262-4.32 1.262-1.937 0-3.892-.657-5.35-1.92-1.707-1.475-1.974-3.075-.871-4.995a10.814 10.814 0 013.91-3.947c2.223-1.316 4.339-.818 5.796 1.351.143.196.25.409.374.622.089.16.16.303.249.445.337.55.889.924 1.475 1.03a2.051 2.051 0 001.582-.408 48.652 48.652 0 007.805-7.733c.373-.463.515-.978.426-1.53-.106-.604-.497-1.172-1.102-1.564-.729-.462-1.564-1.013-2.24-1.689-.977-.96-1.244-2.257-.729-3.555 1.032-2.613 2.845-4.444 5.44-5.458 1.725-.675 3.467-.142 4.765 1.476 1.013 1.262 1.529 2.826 1.6 4.8v.035c-.036 1.814-.498 3.325-1.405 4.676-4.48 6.578-10.169 12.178-17.404 17.102zM35.22 64.391a2.045 2.045 0 00-2.044-2.044c-1.12 0-2.045.906-2.045 2.026a2.045 2.045 0 004.089.018z" fill="#131313"/></svg>