<svg width="505" height="505" fill="none" xmlns="http://www.w3.org/2000/svg"><g clip-path="url(#clip0_967_11403)"><circle cx="252.5" cy="252.5" r="252.5" fill="#F5F7FA"/><g opacity=".15"><path d="M154.275 451.462s16.114-49.506-12.991-115.509c-27.003-61.242-95.697-205.096-99.535-272.78-.17-2.998-4.084-3.498-5.105-.645C25.684 93.13 3.88 171.818 27.022 265.73c29.843 121.105 127.253 185.731 127.253 185.731z" fill="#999"/><path opacity=".6" d="M39.439 124.016c-1.533 7.024-2.233 14.191-2.552 21.341-.045.895-.107 1.79-.137 2.683l-.042 2.682-.083 5.367.131 5.359c.058 1.785.049 3.579.212 5.353.858 14.245 2.819 28.394 5.961 42.204.65 3.494 1.652 6.88 2.526 10.306.928 3.406 1.71 6.87 2.84 10.203l3.17 10.086c.492 1.696 1.156 3.32 1.756 4.971l1.838 4.938 1.837 4.937.926 2.466 1.035 2.413 4.138 9.654c.701 1.6 1.354 3.235 2.097 4.809l2.22 4.729 4.439 9.456c6.025 12.547 12.137 25.05 18.545 37.372 3.159 6.188 6.411 12.317 9.635 18.465l9.853 18.319c6.581 12.201 13.177 24.385 19.373 36.783 1.591 3.078 3.031 6.234 4.522 9.364.764 1.556 1.424 3.163 2.121 4.753.68 1.597 1.403 3.176 2.048 4.79 1.222 3.256 2.564 6.468 3.565 9.815 1.178 3.285 1.949 6.705 2.825 10.1l.006.023a.382.382 0 00.491.278.442.442 0 00.288-.502c-1.347-6.975-3.408-13.746-5.866-20.324-.612-1.646-1.3-3.253-1.946-4.883-.662-1.621-1.29-3.261-2.02-4.845-1.423-3.188-2.798-6.407-4.32-9.538-5.954-12.609-12.459-24.872-18.848-37.191l-9.592-18.465c-3.178-6.164-6.392-12.306-9.506-18.506-6.293-12.362-12.396-24.829-18.403-37.352l-4.423-9.438-2.211-4.719c-.74-1.571-1.398-3.175-2.1-4.761l-4.154-9.542-1.04-2.385-.93-2.437-1.848-4.881c-5.087-12.947-9.112-26.364-12.461-39.973-3.407-13.6-5.65-27.566-6.8-41.673-.2-1.758-.222-3.535-.348-5.3l-.308-5.308-.095-5.326-.047-2.665c0-.889.032-1.779.048-2.667.05-1.779.049-3.559.141-5.338l.319-5.338c.319-3.551.61-7.121 1.27-10.641.007-.027-.009-.057-.035-.061-.026-.007-.053.014-.06.04h-.001z" fill="#fff"/></g><g opacity=".3"><path d="M106.815 30.365c1.012-2.202 4.107-1.602 4.17.811.614 23.327 4.036 84.375 22.88 120.693 30.68 59.133 39.947 145.815 3.057 181.108 0 0-140.323-62.707-30.107-302.612z" fill="#999"/><path opacity=".6" d="M103.643 62.719c-.105.696-.146 1.32-.212 1.971l-.159 1.936-.277 3.87a626.286 626.286 0 00-.454 7.746 756.442 756.442 0 00-.622 15.495c-.301 10.332-.348 20.661-.243 30.985.097 10.323.447 20.635.996 30.929l.199 3.861.247 3.857c.177 2.57.308 5.144.525 7.709l.601 7.702.71 7.687c1.997 20.483 5.006 40.838 9.382 60.837.136.625.263 1.253.408 1.876l.449 1.864.895 3.727.896 3.727c.314 1.238.658 2.467.985 3.7l.995 3.696c.341 1.228.639 2.473 1.023 3.687l2.203 7.318c3.112 9.69 6.632 19.227 10.77 28.447a.225.225 0 00.312.11.263.263 0 00.117-.329v-.003c-3.92-9.309-7.318-18.858-10.271-28.573l-2.127-7.318c-.373-1.214-.658-2.458-.986-3.687l-.957-3.696c-.314-1.233-.648-2.46-.947-3.698l-.858-3.725-.859-3.726-.429-1.862c-.139-.622-.259-1.25-.388-1.874l-1.546-7.498c-.5-2.504-.936-5.023-1.407-7.533-.228-1.258-.471-2.512-.685-3.771l-.615-3.787-.615-3.787a120.145 120.145 0 01-.583-3.795c-1.535-10.124-2.689-20.319-3.747-30.528-2.038-20.431-3.084-41.001-3.511-61.601a852.742 852.742 0 01-.028-30.931 761.42 761.42 0 01.4-15.476c.102-2.58.209-5.16.343-7.737l.222-3.866.131-1.931c.054-.636.098-1.303.172-1.889l.006-.055c.018-.136-.072-.257-.2-.27-.127-.013-.242.083-.263.215l.002-.006z" fill="#fff"/></g><path d="M420.746 284.818c4.217 6.785 8.636 16.477 7.563 26.169-1.957 17.698-28.976 25.561-52.655 15.73-16.88-7.009-9.694-30.003-4.176-42.631 1.748-4.001-1.143-8.491-5.492-8.491H305v-69.011c0-6.025 6.348-9.9 11.665-7.111 6.372 3.341 14.749 6.887 23.566 8.284 18.593 2.95 37.188-17.697 35.231-37.359-1.958-19.661-20.553-34.409-40.124-33.426-6.771.34-12.402 3.184-16.877 6.758-5.151 4.116-12.772.198-12.772-6.413V77h168.706c5.367 0 9.73 4.347 9.77 9.739.221 29.369.863 115.344.834 119.856l-.422 69H425.79c-4.713 0-7.542 5.206-5.046 9.223h.002z" fill="#E8EBED"/><path d="M358.041 463.998h-53.584v-57.89c0-5.794-5.898-9.652-11.223-7.4-5.819 2.461-13.725 4.804-23.298 5.245-21.448.984-37.776-16.735-34.522-41.344 3.255-24.61 24.134-30.517 34.315-27.563 5.315 1.542 14.545 7.454 22.154 12.752 5.313 3.699 12.574-.117 12.574-6.601V275h61.19c4.365 0 7.266 4.495 5.511 8.502-5.537 12.644-12.747 35.669 4.189 42.684 23.758 9.844 50.867 1.969 52.831-15.749 1.075-9.704-3.36-19.41-7.589-26.203-2.505-4.022.333-9.234 5.063-9.234h58.983s1.407 119.901 1.364 127.106l-.308 51.511c-.035 5.744-4.69 10.383-10.419 10.383H358.041v-.002z" fill="#CCC"/><path d="M187.757 463.998h-44.932c-7.084 0-12.825-5.731-12.825-12.803V408.77c0-6.254.124-64.341.124-70.703V273.97h59.279c4.885 0 7.752-5.546 4.862-9.48-13.874-18.892-1.767-45.781 8.592-50.331 12.277-5.392 37.321-6.863 44.687 20.592 3.836 14.298.317 24.742-3.937 31.466-2.535 4.005.271 9.226 5.016 9.226H305v65.936c0 6.459-7.263 10.259-12.577 6.575-7.611-5.278-16.844-11.166-22.159-12.703-10.182-2.941-31.066 2.942-34.323 27.455-3.255 24.512 13.077 42.161 34.529 41.181 9.578-.439 17.485-2.773 23.304-5.225 5.326-2.243 11.226 1.6 11.226 7.372v57.662h-52.54c-6.739 0-57.664.304-64.703.304v-.002z" fill="#999"/><path d="M196.545 147.755s-44.285 47.099-86.631 49.68c0 0 3.541 23.897 9.115 27.631 0 0 57.629-31.826 78.093-69.292l-.577-8.017v-.002z" fill="#FFC3BD"/><path d="M252.411 204.729c3.816-6.03 6.971-15.394 3.532-28.217-6.606-24.619-29.063-23.301-40.072-18.464-9.288 4.081-20.145 28.192-7.703 45.133 2.591 3.528.021 8.501-4.36 8.501h-53.155L149 40.154A6.101 6.101 0 01155.161 34l146.255 1.33a6.723 6.723 0 016.667 6.72v47.285c0 5.972 6.904 9.352 11.599 5.653 4.008-3.16 9.043-5.66 15.081-5.96 17.614-.88 34.347 12.309 36.109 29.894 1.761 17.585-14.972 36.05-31.704 33.412-7.935-1.252-15.472-4.422-21.207-7.411-4.785-2.494-10.498.972-10.498 6.36V213h-50.554c-4.255 0-6.769-4.679-4.498-8.272v.001z" fill="#DB1F26"/><path d="M90.805 145.705s-7.83 3.805-9.267 8.178c-1.155 3.507-9.811 3.96-10.666 10.859-.44 3.562-3.079 6.415-6.629 6.959-8.84 1.355-22.464 5.944-24.644 21.286-1.664 11.71 4.309 16.151 10.577 17.688 4.603 1.129 7.662 5.604 6.732 10.251-.893 4.456.439 9.608 8.16 13.681 17.308 9.127 34.592-21.626 34.592-21.626l3.541-53.698-12.398-13.578h.002zM19.667 482.414l-1.12 9.203a3.804 3.804 0 01-3.335 3.327c-2.953.338-7.688.683-12.323.193-2.034-.215-3.355-2.273-2.735-4.222 1.13-3.553 3.196-8.886 6.175-12.025h10.214a3.147 3.147 0 013.124 3.526v-.002z" fill="#333"/><path d="M99.659 374.608l1.723 10.136s-5.772 58.448-6.799 81.827a18.314 18.314 0 002.712 10.412l10.039 16.294-25.512-15.048-.508-3.112 4.176-5.739-5.471-65.478a20.076 20.076 0 012.287-11.11l5.276-9.91 12.075-8.273.002.001z" fill="#FFC3BD"/><path d="M109.012 495.638h-8.141a4.897 4.897 0 01-3.89-1.908c-2.538-3.296-7.796-9.727-10.311-9.895-3.384-.226-2.952 11.803-2.952 11.803H81.82l-2.403-14.947a8.848 8.848 0 014.646-9.249s.773 5.72 4.968 8.25c4.196 2.53 17.073 11.591 17.073 11.591s1.577-.224 3.308.089c2.569.464 2.209 4.266-.401 4.266h.001z" fill="#333"/><path d="M64.716 379.421s-33.819 64.123-39.194 78.765c-5.375 14.64-7.26 26.854-7.332 28.01-.112 1.807-2.362 3.539-8.56 3.539-3.199 0-4.767-1.282-5.533-2.523-.654-1.058-.688-2.382-.137-3.498 1.957-3.957 8.165-16.604 10.463-22.34 2.744-6.849 8.649-37.885 11.888-48.676 3.238-10.792 6.899-22.496 21.002-33.278 0 0 9.681-9.478 17.401 0l.002.001z" fill="#FFC3BD"/><path d="M86.083 274.352c8.723-36.949-13.376-57.849-13.376-57.849 13.945-13.379 39.352-19.467 39.352-19.467s24.243 17.717 21.367 31.584c-1.686 8.127-17.042 48.683-17.042 48.683s-14.199 6.717-30.301-2.951z" fill="url(#paint0_linear_967_11403)"/><path d="M66.74 292.645c3.55-10.691 19.342-18.293 19.342-18.293 16.102 9.668 30.301 2.951 30.301 2.951s3.184 12.166.987 23.473c-2.197 11.306-15.987 83.97-15.987 83.97-21.726 4.401-55.14-4.427-55.14-4.427 13.837-24.56 16.947-76.98 20.497-87.672v-.002z" fill="#333"/><path d="M96.208 172.617l-7.093 31.845c-.68 2.805 1.879 2.346 4.715 1.812 4.647-.876 10.635-2.679 12.637-6.292.204-.369.305-.784.363-1.2l3.046-22.082a3.965 3.965 0 00-2.323-4.168l-5.88-2.606a3.969 3.969 0 00-5.467 2.694l.002-.003zm-27.424 53.722s64.876 79.185 113.347-10.977c0 0 .93-2.305.349-5.631-.295-1.68.818-7.64 1.429-10.685a1.678 1.678 0 00-1.495-1.999 2.295 2.295 0 00-2.025.867l-8.853 11.269a4.723 4.723 0 002.506 5.608 2.329 2.329 0 01.863 3.52c-36.861 48.3-98.516-4.701-99.643-4.078-4.004 2.209-8.628 4.65-6.478 12.106z" fill="#FFC3BD"/><path d="M104.528 142.297s8.4 3.545 14.111 15.678c5.711 12.133 1.447 17.735-3.911 18.505-5.358.769-13.371.652-21.844-7.186-8.474-7.839.724-31.2 11.644-26.997z" fill="#FFC3BD"/><path d="M98.581 162.815s-6.338-17.751 9.408-17.961l3.706 2.588s5.776-9.841-3.706-14.54c-9.482-4.697-20.58-.818-24.614 11.952-4.034 12.769-4.725 21.317 1.99 27.427 6.712 6.11 9.48-.818 9.48-.818s-3.656-5.715-2.169-8.772c1.49-3.058 4.92.632 4.92.632l.985-.508zm321.926 319.953s1.386 7.428 2.102 14.788c.28 2.877-1.917 5.396-4.805 5.544-9.809.502-30.793 1.497-38.329 1.232-1.132-.04-1.884-1.192-1.476-2.249a3.704 3.704 0 011.872-2.01l34.522-16.26 6.114-1.047v.002z" fill="#333"/><path d="M421.544 478.386l-.972 8.911s-6.047 2.884-10.224-.258l2.421-9.942 8.775 1.291v-.002z" fill="#FFC3BD"/><path d="M419.153 311.06c.479 2.32 3.556 115.967-8.112 167.019a1.728 1.728 0 001.033 2.001c1.872.745 5.538 1.812 9.919 1.917a2.98 2.98 0 002.935-2.166c3.362-11.851 19.446-71.222 21.078-127.809 1.823-63.229-.02-2.153-.02-2.153l-1.796-39.055-25.035.244-.002.002zm41.278 175.21s2.128 3.736 4.251 13.698a3.098 3.098 0 01-2.69 3.735c-3.238.349-8.223.808-12.217.817-1.843.005-3.296-1.584-3.092-3.416.409-3.648 1.729-9.638 5.945-14.338l7.803-.496z" fill="#333"/><path d="M462.16 474.805l-2.34 13.484s-2.423 1.838-7.265.569l1.04-14.494 8.565.441z" fill="#FFC3BD"/><path d="M467.296 314.088c10.514 59.877-.742 148.245-4.656 165.557a2.695 2.695 0 01-2.157 2.066c-1.818.32-4.815.594-7.778-.236a2.471 2.471 0 01-1.798-2.256c-.681-13.959-.513-99.7-10.1-133.493a7.693 7.693 0 00-3.01-4.217l-18.1-12.604-1.576-20.638 49.175 5.823v-.002z" fill="#333"/><path d="M402.867 201.06c29.787-.777 62.739 7.222 62.739 7.222 9.375 51.71 2.618 111.522 2.618 111.522-23.006 6.266-49.118-3.229-49.118-3.229-4.039-21.612-22.507-82.369-22.507-82.369-14.573-1.667-26.604-5.751-36.533-11.207 7.45-8.799 10.895-19.938 12.373-26.517 10.564 3.171 21.241 4.818 30.428 4.578z" fill="url(#paint1_linear_967_11403)"/><path d="M314.449 158.035c2.893-3.562 6.613-1.925 6.613-1.925 4.56 18.47 27.693 33.259 51.379 40.372-1.479 6.579-4.925 17.718-12.372 26.517-39.404-21.654-45.618-64.964-45.618-64.964h-.002z" fill="#FFC3BD"/><path d="M315.167 158.927c-.297.975 3.263 2.424 5.313-1.575.055-1.909 1.137-10.09-.018-11.634-6.152-8.218-18.024-18.48-18.024-18.48-1.971 1.982-.313 3.894-.313 3.894l5.769 5.893c-1.174 2.169-2.614 4.006-3.272 6.621-.498 1.981-.162 4.091.855 5.881 1.019 1.795 2.41 4.13 3.72 5.954 2.481 3.453 5.971 3.446 5.971 3.446h-.001z" fill="#FFC3BD"/><path d="M310.428 140.859l5.246 4.362 1.677 4.376-4.591 5.191s-1.644-8.698-2.82-10.573c-1.178-1.875-.586-2.792.489-3.354l-.001-.002z" fill="#FFC3BD"/><path d="M454.453 237.226l11.152-28.944s28.008 18.635 32.812 42.554c-5.254.437-14.808 1.896-24.129 6.711-2.166-11.295-19.835-20.321-19.835-20.321z" fill="url(#paint2_linear_967_11403)"/><path d="M430.394 264.59s31.411 17.353 41.809 2.18c2.159-3.149 2.652-6.265 2.085-9.225 9.319-4.817 18.875-6.274 24.129-6.711 1.449 7.211.793 14.901-3.38 22.707-18.144 33.941-68.705-1.21-68.705-1.21l4.062-7.739v-.002zm2.416-87.995l9.741 27.313a.99.99 0 01-.439 1.194c-2.572 1.452-11.84 5.669-23.127-1.333a4.65 4.65 0 01-2.174-3.3l-3.295-23.688 19.294-.184v-.002z" fill="#FFC3BD"/><path d="M436.812 292.013L419.7 232.282a1.747 1.747 0 00-1.474-1.255 754.645 754.645 0 00-22.457-2.254c-12.494-1.056-27.002-1.912-35.673-1.184a1.747 1.747 0 00-1.429 2.515c4.931 9.971 25.21 50.528 35.366 63.815.336.44.856.697 1.411.691l39.7-.368a1.748 1.748 0 001.664-2.229h.004z" fill="#333"/><path d="M432.678 277.581s2.383-9.797 1.422-13.272c-.961-3.477-2.824-7.945-9.034-6.952-6.21.994-13.535 3.609-13.535 3.609s.371 4.527 5.09 3.066l-2.927 2.263s.417 3.625 4.405 1.689l-2.723 3.002s1.713 2.978 4.645 1.067c2.933-1.909 4.338 6.709 12.657 5.528z" fill="#FFC3BD"/><path d="M396.913 246.604a5.023 5.023 0 01-10.046 0 5.023 5.023 0 0110.046 0z" fill="#737373"/><path d="M412.553 146.041c-.322.381-11.791 31.23-11.791 31.23l17.76 6.171 15.217-27.625s-15.815-16.15-21.188-9.778l.002.002z" fill="#FFC3BD"/><path d="M426.378 157.385c.39.74.416 1.616.071 2.378l-6.772 14.95a2.52 2.52 0 01-.394.625c-.891 1.044-3.995 4.143-7.063.77-2.614-2.875-5.057-5.483-7.456-6.397-1.402-.535-2.965.202-3.482 1.609-1.066 2.899-3.097 8.79-4.166 14.278a2.686 2.686 0 001.933 3.094c3.566.986 10.586 2.702 16.657 2.836a2.703 2.703 0 002.412-1.371c2.162-3.816 8.267-14.49 10.455-17.239 2.033-2.553 6.371-2.181 8.346-1.853a2.71 2.71 0 002.11-.529c1.803-1.391 4.85-4.688 1.185-9.25-.91-1.135-.706-2.809.409-3.742 1.998-1.673 4.038-4.617 1.301-8.682-2.772-4.116-6.861-4.042-9.576-3.386-1.202.29-2.514-.206-3.112-1.286-.265-.481-.728-.864-1.51-.93-1.478-.127-2.578-1.337-2.463-2.814.199-2.534-.538-5.711-4.748-7.427-7.72-3.149-13.325 4.086-14.306 9.76-.981 5.675 7.583 8.613 12.761 8.669 3.805.042 6.335 3.894 7.41 5.937h-.002z" fill="#333"/><path d="M426.016 178.418s2.133-9.813 6.305-9.944c4.172-.132 7.9 3.606 3.316 8.824-5.702 6.489-9.621 1.121-9.621 1.121v-.001z" fill="#FFC3BD"/></g><defs><linearGradient id="paint0_linear_967_11403" x1="235.498" y1="-48.978" x2="199.031" y2="27.637" gradientUnits="userSpaceOnUse"><stop stop-color="#FD928E"/><stop offset="1" stop-color="#DB1F26"/></linearGradient><linearGradient id="paint1_linear_967_11403" x1="459.539" y1="54.609" x2="443.13" y2="133.038" gradientUnits="userSpaceOnUse"><stop stop-color="#FD928E"/><stop offset="1" stop-color="#DB1F26"/></linearGradient><linearGradient id="paint2_linear_967_11403" x1="513.725" y1="65.945" x2="497.316" y2="144.375" gradientUnits="userSpaceOnUse"><stop stop-color="#FD928E"/><stop offset="1" stop-color="#DB1F26"/></linearGradient><clipPath id="clip0_967_11403"><path fill="#fff" d="M0 0h505v505H0z"/></clipPath></defs></svg>