<svg width="213" height="42" fill="none" xmlns="http://www.w3.org/2000/svg"><g clip-path="url(#clip0_1307_4384)" fill-rule="evenodd" clip-rule="evenodd"><path d="M20 0C8.941 0 0 8.941 0 20c0 11.025 8.941 20 20 20 11.025 0 20-8.941 20-20-.034-11.059-8.975-20-20-20zm9.479 29.479h-4.74V20c0-.672-.134-1.277-.37-1.849a5.938 5.938 0 00-1.008-1.512 4.587 4.587 0 00-1.512-1.009c-.572-.269-1.177-.37-1.849-.37-.672 0-1.277.135-1.849.37a5.938 5.938 0 00-1.512 1.009 4.587 4.587 0 00-1.009 1.512c-.269.572-.37 1.177-.37 1.849 0 .672.135 1.277.37 1.849a5.938 5.938 0 001.009 1.512c.437.437.94.773 1.512 1.009.572.269 1.177.37 1.849.37v4.739c-1.31 0-2.555-.235-3.698-.74a10.357 10.357 0 01-3.025-2.016c-.874-.874-1.546-1.849-2.016-3.025-.505-1.143-.74-2.387-.74-3.698 0-1.31.235-2.555.74-3.698a10.357 10.357 0 012.016-3.025c.874-.874 1.85-1.546 3.025-2.016 1.143-.505 2.387-.74 3.698-.74 1.31 0 2.555.235 3.698.74a10.357 10.357 0 013.025 2.016 9.183 9.183 0 012.017 3.025c.504 1.143.739 2.387.739 3.698v9.479z" fill="#DB1F26"/><path d="M168.105 11.586c-.034 0-.034 0-.034-.033-.238-.133-.477-.233-.715-.333-1.022-.432-2.112-.665-3.27-.732h-.477c-1.328 0-2.589.233-3.747.732a10.54 10.54 0 00-3.066 1.997c-.885.865-1.566 1.83-2.043 2.995-.511 1.132-.75 2.363-.75 3.661v.466c.068 1.132.307 2.197.75 3.195.102.233.204.466.34.699 0 0 0 .033.034.033a9.245 9.245 0 001.704 2.263c.442.433.919.832 1.43 1.165.545.366 1.158.666 1.771.932a9.81 9.81 0 003.611.699 9.675 9.675 0 003.611-.699 9.42 9.42 0 003.168-2.063l-3.407-3.328a4.535 4.535 0 01-1.601 1.031 4.816 4.816 0 01-1.805.333c-.545 0-1.056-.1-1.567-.266h-.034c-.034 0-.034 0-.068-.034l-.204-.1a5.996 5.996 0 01-1.533-.998 5.04 5.04 0 01-.988-1.364c-.034-.067-.034-.1-.068-.167a4.51 4.51 0 01-.341-1.764c0-.599.102-1.198.341-1.763.068-.2.17-.4.272-.6.034-.033.034-.066.034-.066v-.033c.205-.333.443-.6.716-.866.272-.266.579-.499.885-.698h.034c.034-.034.068-.034.068-.034.205-.1.409-.2.614-.266a4.818 4.818 0 011.805-.333c.613 0 1.226.1 1.805.333.068.033.102.033.171.067.034 0 .068.033.102.066l-3.883 3.228 3.099 3.561 3.509-2.895 4.053-3.395a10.232 10.232 0 00-2.044-2.995 11.21 11.21 0 00-2.282-1.63zm-54.602-2.928h4.803V3h-4.803v5.658zm0 20.667h4.803V10.52h-4.803v18.804zm32.7-2.762a8.98 8.98 0 003.066 1.996c1.158.5 2.418.733 3.746.733v-4.693a4.937 4.937 0 01-1.873-.366 6.04 6.04 0 01-1.533-.998 5.23 5.23 0 01-1.056-1.498c-.272-.566-.374-1.165-.374-1.83v-3.062h3.338v-4.693h-3.338V3h-4.803v16.907c0 1.297.238 2.529.749 3.66.511 1.165 1.192 2.164 2.078 2.996zm40.739-3.328a4.535 4.535 0 01-1.601 1.031 4.816 4.816 0 01-1.805.333 4.821 4.821 0 01-3.407-1.364 4.433 4.433 0 01-1.056-1.565 4.527 4.527 0 01-.34-1.764c0-.599.102-1.198.34-1.763a4.753 4.753 0 011.056-1.565 4.537 4.537 0 011.601-1.031 4.822 4.822 0 011.806-.333 4.816 4.816 0 013.406 1.364l3.406-3.328a9.566 9.566 0 00-3.168-2.063 9.802 9.802 0 00-3.61-.699 9.675 9.675 0 00-3.611.699 9.42 9.42 0 00-3.168 2.063 9.345 9.345 0 00-2.112 3.096c-.476 1.164-.715 2.33-.715 3.527 0 1.198.239 2.396.715 3.528a9.173 9.173 0 002.112 3.095 9.586 9.586 0 003.168 2.063 9.805 9.805 0 003.611.7 9.668 9.668 0 003.61-.7 9.4 9.4 0 003.168-2.063l-3.406-3.261zm25.309-6.99a10.253 10.253 0 00-2.044-2.995 9.327 9.327 0 00-3.066-1.996c-1.158-.5-2.418-.733-3.747-.733a9.572 9.572 0 00-4.803 1.265V3h-4.802v26.325h4.802v-9.418c0-.666.137-1.265.375-1.83a5.883 5.883 0 011.022-1.499 4.665 4.665 0 011.533-.998c.579-.266 1.192-.366 1.873-.366.682 0 1.295.133 1.874.366.579.266 1.09.6 1.533.998.442.433.783.932 1.021 1.498.273.566.375 1.165.375 1.83v9.386H213v-9.386c0-1.297-.238-2.495-.749-3.66zm-147.833-2.96a9.322 9.322 0 00-3.065-1.997c-1.159-.5-2.419-.732-3.747-.732-1.329 0-2.59.233-3.747.732a10.54 10.54 0 00-3.066 1.997c-.886.865-1.567 1.83-2.044 2.995-.51 1.131-.749 2.363-.749 3.66 0 1.299.238 2.53.75 3.662a10.24 10.24 0 002.043 2.995 8.983 8.983 0 003.066 1.997c1.158.499 2.418.732 3.747.732V24.6a4.939 4.939 0 01-1.874-.366 6.035 6.035 0 01-1.533-.998 4.54 4.54 0 01-1.021-1.498c-.273-.566-.375-1.165-.375-1.83 0-.666.136-1.265.375-1.83a5.878 5.878 0 011.021-1.499 4.662 4.662 0 011.533-.998c.58-.266 1.192-.366 1.874-.366.681 0 1.294.133 1.873.366.58.266 1.09.6 1.533.998a4.54 4.54 0 011.022 1.498c.272.566.374 1.165.374 1.83v9.386h4.803v-9.386c0-1.297-.238-2.529-.749-3.66a9.665 9.665 0 00-2.044-2.962zm19.212 6.623c0 .665-.137 1.264-.375 1.83a5.878 5.878 0 01-1.022 1.498 4.66 4.66 0 01-1.533.998c-.579.266-1.192.366-1.873.366a4.939 4.939 0 01-1.874-.366 6.035 6.035 0 01-1.532-.998 4.54 4.54 0 01-1.022-1.498c-.273-.566-.375-1.165-.375-1.83V10.52H69.22v9.386c0 1.297.239 2.529.75 3.66a10.24 10.24 0 002.043 2.996 8.983 8.983 0 003.066 1.996c1.158.5 2.418.733 3.747.733 1.328 0 2.589-.233 3.747-.733a10.498 10.498 0 003.065-1.996c.886-.866 1.567-1.83 2.044-2.996.511-1.131.75-2.363.75-3.66V10.52H83.63v9.386zm21.221 0c0 .665-.137 1.264-.375 1.83a5.855 5.855 0 01-1.022 1.498 4.664 4.664 0 01-1.533.998c-.579.266-1.192.366-1.873.366a4.939 4.939 0 01-1.874-.366 6.035 6.035 0 01-1.532-.998 4.54 4.54 0 01-1.022-1.498c-.273-.566-.375-1.165-.375-1.83 0-.666.136-1.265.375-1.83a5.878 5.878 0 011.022-1.499 4.662 4.662 0 011.532-.998c.58-.266 1.193-.366 1.874-.366V10.52c-1.329 0-2.589.233-3.747.733a10.516 10.516 0 00-3.066 1.996c-.885.866-1.567 1.83-2.043 2.996-.511 1.131-.75 2.363-.75 3.66 0 1.298.239 2.53.75 3.661a10.24 10.24 0 002.043 2.996 8.983 8.983 0 003.066 1.996c1.158.5 2.418.733 3.747.733 1.328 0 2.589-.233 3.747-.733a10.498 10.498 0 003.065-1.996c.886-.866 1.567-1.83 2.044-2.996.511-1.131.75-2.363.75-3.66V3h-4.803v16.907zm36.515 0c0-1.298-.238-2.53-.749-3.661a10.253 10.253 0 00-2.044-2.996 9.327 9.327 0 00-3.066-1.996c-1.158-.5-2.418-.733-3.747-.733-1.328 0-2.588.233-3.747.733a10.498 10.498 0 00-3.065 1.996c-.886.866-1.567 1.83-2.044 2.996-.511 1.131-.749 2.363-.749 3.66 0 1.298.238 2.53.749 3.661a10.233 10.233 0 002.044 2.996 8.975 8.975 0 003.065 1.996c1.159.5 2.419.733 3.747.733 1.329 0 2.589-.233 3.747-.733a10.516 10.516 0 003.066-1.996c.886-.866 1.567-1.83 2.044-2.996.511-1.131.749-2.363.749-3.66zm-5.178 1.83a5.878 5.878 0 01-1.021 1.498 4.664 4.664 0 01-1.533.998c-.579.266-1.192.366-1.874.366a4.937 4.937 0 01-1.873-.366 6.04 6.04 0 01-1.533-.998 4.544 4.544 0 01-1.022-1.498c-.272-.566-.375-1.165-.375-1.83 0-.666.137-1.265.375-1.83a5.883 5.883 0 011.022-1.499 4.665 4.665 0 011.533-.998c.579-.266 1.192-.366 1.873-.366.682 0 1.295.133 1.874.366.579.266 1.09.6 1.533.998.442.433.783.932 1.021 1.498.273.566.375 1.165.375 1.83 0 .666-.102 1.265-.375 1.83zm6.064 13.973c-.477 0-.852.166-1.124.466V33.98h-.886v6.29h.886v-2.396c0-.898.374-1.331 1.124-1.331.749 0 1.124.433 1.124 1.364v2.363h.885v-2.362c0-.733-.17-1.298-.545-1.664-.34-.367-.851-.533-1.464-.533zm5.382 0c-.648 0-1.227.233-1.67.699-.442.466-.681.998-.681 1.63 0 .633.239 1.199.681 1.631.443.466 1.022.666 1.67.666.476 0 .885-.133 1.26-.366.375-.233.681-.566.886-.932h-1.09c-.273.3-.648.433-1.09.433-.375 0-.682-.1-.92-.333-.273-.2-.409-.5-.443-.832h3.713c.034-.133.034-.266.034-.4-.034-.665-.273-1.198-.749-1.63a2.467 2.467 0 00-1.601-.566zm-1.397 1.897c.102-.333.238-.566.511-.765.238-.2.545-.3.886-.3.34 0 .613.1.885.3.239.2.409.465.511.765h-2.793zm7.085-1.897c-.647 0-1.226.233-1.669.666-.477.466-.681.998-.681 1.63 0 .633.238 1.198.681 1.631.477.466 1.022.666 1.669.666.307 0 .613-.067.886-.233.272-.133.477-.333.579-.566v.699h.919V37.94c0-.633-.238-1.198-.681-1.631-.477-.4-1.056-.599-1.703-.599zm1.056 3.361a1.453 1.453 0 01-1.056.433c-.409 0-.783-.133-1.056-.433-.272-.3-.443-.632-.443-1.031 0-.4.137-.766.409-1.032a1.513 1.513 0 011.056-.433c.409 0 .749.133 1.056.433.272.266.409.632.409 1.032.034.399-.103.732-.375 1.031zm2.963-2.762c-.34.366-.545.899-.545 1.63v2.364h.92V37.94c0-.865.341-1.298 1.022-1.298h.102v-.899h-.102c-.579 0-1.022.2-1.397.566zm3.1-2.23a.573.573 0 00-.409.167.546.546 0 00-.17.399.53.53 0 00.17.366c.103.1.239.166.409.166a.554.554 0 00.375-.166.53.53 0 00.17-.366c0-.166-.068-.266-.17-.4-.102-.133-.205-.166-.375-.166zm-.443 6.19h.92v-4.492h-.92v4.492zm4.156-4.559c-.613 0-1.09.2-1.465.566-.374.366-.545.932-.545 1.664v2.363h.886V37.94c0-.899.375-1.365 1.124-1.365.749 0 1.124.433 1.124 1.365v2.363h.92V37.94c0-.732-.171-1.298-.545-1.664-.409-.4-.886-.566-1.499-.566zm5.382 0c-.647 0-1.226.233-1.669.666-.477.466-.681.998-.681 1.63 0 .633.238 1.198.681 1.631.477.466 1.022.666 1.669.666.579 0 1.056-.2 1.465-.6v.2c0 .366-.137.666-.409.899a1.53 1.53 0 01-1.022.366c-.443 0-.783-.166-1.09-.532h-1.09c.17.432.477.765.852.998.408.266.817.366 1.294.366.647 0 1.226-.233 1.669-.666.477-.466.681-.998.681-1.63v-1.73c0-.633-.238-1.199-.681-1.632-.443-.432-1.022-.632-1.669-.632zm1.056 3.361a1.453 1.453 0 01-1.056.433c-.409 0-.784-.133-1.056-.433-.273-.3-.443-.632-.443-1.031 0-.4.136-.766.409-1.032a1.51 1.51 0 011.056-.433c.409 0 .749.133 1.056.433.272.266.409.632.409 1.032.034.399-.103.732-.375 1.031zm7.868-1.298c-.272-.066-.511-.133-.783-.2a1.631 1.631 0 01-.647-.199c-.171-.1-.273-.2-.273-.366 0-.166.068-.3.205-.4.136-.1.34-.166.545-.166.238 0 .442.067.579.167.17.1.238.233.238.399h.852c0-.433-.171-.766-.477-.998-.307-.233-.716-.367-1.226-.367-.477 0-.886.133-1.227.367-.34.233-.477.532-.477.898 0 .333.103.6.273.765.17.2.409.333.647.4.273.066.511.133.784.166.272.067.476.133.647.233.17.1.272.233.272.433a.483.483 0 01-.238.433c-.171.1-.375.166-.647.166a1.37 1.37 0 01-.682-.166.53.53 0 01-.272-.466h-.852c0 .432.171.798.511 1.031.341.267.784.366 1.295.366.545 0 .987-.133 1.328-.366.341-.233.511-.565.477-1.031 0-.333-.102-.6-.273-.766a1.711 1.711 0 00-.579-.333zm4.224-2.063c-.647 0-1.226.233-1.669.666-.477.466-.681.998-.681 1.63 0 .633.238 1.198.681 1.631.477.466 1.022.666 1.669.666s1.226-.233 1.669-.666c.477-.466.681-.998.681-1.63 0-.633-.238-1.199-.681-1.631-.443-.466-1.022-.666-1.669-.666zm1.056 3.361a1.451 1.451 0 01-1.056.433c-.409 0-.783-.133-1.056-.433-.272-.3-.443-.632-.443-1.031 0-.4.137-.766.409-1.032a1.513 1.513 0 011.056-.433c.409 0 .784.133 1.056.433.273.266.409.632.409 1.032.034.399-.102.732-.375 1.031zm2.316 1.198h.92v-6.29h-.92v6.29zm5.178-2.13c0 .899-.375 1.365-1.124 1.365-.75 0-1.124-.433-1.124-1.364v-2.364h-.92v2.363c0 .733.17 1.298.545 1.664.375.367.852.566 1.465.566.613 0 1.09-.2 1.464-.566.375-.366.545-.931.545-1.663v-2.364h-.919v2.363h.068zm3.406-3.993h-.885v1.597h-.682v.866h.682v1.53c0 .7.17 1.232.51 1.565.341.366.784.532 1.397.565v-.865c-.647-.066-.988-.5-.988-1.298V36.61h.988v-.866h-.988v-1.597h-.034zm2.01 6.123h.92v-4.492h-.92v4.492zm.443-6.19a.57.57 0 00-.409.167.546.546 0 00-.17.399.53.53 0 00.17.366.57.57 0 00.409.166.551.551 0 00.374-.166.527.527 0 00.171-.366.478.478 0 00-.171-.4c-.068-.133-.204-.166-.374-.166zm3.917 1.631c-.647 0-1.226.233-1.669.666-.477.466-.681.998-.681 1.63 0 .633.238 1.198.681 1.631.477.466 1.022.666 1.669.666s1.226-.233 1.669-.666c.477-.466.681-.998.681-1.63 0-.633-.238-1.199-.681-1.631-.443-.466-1.022-.666-1.669-.666zm1.056 3.361a1.453 1.453 0 01-1.056.433c-.409 0-.784-.133-1.056-.433-.273-.3-.443-.632-.443-1.031 0-.4.136-.766.409-1.032a1.51 1.51 0 011.056-.433c.409 0 .783.133 1.056.433.272.266.409.632.409 1.032.034.399-.103.732-.375 1.031zm4.36-3.361c-.613 0-1.09.2-1.465.566-.375.366-.545.932-.545 1.664v2.363h.92V37.94c0-.899.375-1.365 1.124-1.365.749 0 1.124.433 1.124 1.365v2.363h.92V37.94c0-.732-.171-1.298-.545-1.664-.443-.4-.92-.566-1.533-.566zm5.62 2.063c-.272-.066-.511-.133-.783-.2a1.631 1.631 0 01-.647-.199c-.171-.1-.273-.2-.273-.366 0-.166.068-.3.204-.4a.96.96 0 01.545-.166c.239 0 .443.067.58.167.17.1.238.233.238.399h.852c0-.433-.171-.766-.477-.998-.307-.233-.716-.367-1.227-.367a2.13 2.13 0 00-1.226.367c-.34.233-.477.532-.477.898 0 .333.102.6.273.765.17.2.409.333.647.4.272.066.511.133.783.166.273.067.477.133.648.233.17.1.272.233.272.433a.483.483 0 01-.238.433c-.171.1-.375.166-.648.166a1.37 1.37 0 01-.681-.166.53.53 0 01-.272-.466h-.852c0 .432.17.798.511 1.031.341.267.784.366 1.294.366.545 0 .988-.133 1.329-.366.341-.233.511-.565.477-1.031 0-.333-.102-.6-.273-.766a1.711 1.711 0 00-.579-.333z" fill="#333"/></g><defs><clipPath id="clip0_1307_4384"><path fill="#fff" d="M0 0h213v42H0z"/></clipPath></defs></svg>