<svg width="40" height="40" fill="none" xmlns="http://www.w3.org/2000/svg"><path fill-rule="evenodd" clip-rule="evenodd" d="M20 0C8.941 0 0 8.941 0 20c0 11.025 8.941 20 20 20 11.025 0 20-8.941 20-20-.034-11.059-8.975-20-20-20zm9.479 29.479h-4.74V20c0-.672-.134-1.277-.37-1.849a5.938 5.938 0 00-1.008-1.512 4.587 4.587 0 00-1.512-1.009c-.572-.269-1.177-.37-1.849-.37-.672 0-1.277.135-1.849.37a5.938 5.938 0 00-1.512 1.009 4.587 4.587 0 00-1.009 1.512c-.269.572-.37 1.177-.37 1.849 0 .672.135 1.277.37 1.849a5.938 5.938 0 001.009 1.512c.437.437.94.773 1.512 1.009.572.269 1.177.37 1.849.37v4.739c-1.31 0-2.555-.235-3.698-.74a10.357 10.357 0 01-3.025-2.016c-.874-.874-1.546-1.849-2.016-3.025-.505-1.143-.74-2.387-.74-3.698 0-1.31.235-2.555.74-3.698a10.357 10.357 0 012.016-3.025c.874-.874 1.85-1.546 3.025-2.016 1.143-.505 2.387-.74 3.698-.74 1.31 0 2.555.235 3.698.74a10.357 10.357 0 013.025 2.016 9.183 9.183 0 012.017 3.025c.504 1.143.739 2.387.739 3.698v9.479z" fill="#DB1F26"/></svg>