<svg width="142" height="48" fill="none" xmlns="http://www.w3.org/2000/svg"><g clip-path="url(#clip0_347_4840)"><path d="M138.136 47.93H3.063a2.997 2.997 0 01-3.001-2.992V3.055A2.997 2.997 0 013.063.064h135.073a2.997 2.997 0 013.002 2.991v41.883a2.997 2.997 0 01-3.002 2.992z" fill="#131313"/><path d="M31.205 17.815c1.132 0 1.91.079 2.288.483.374.397.563 1.258.579 2.633-1.604.067-4.656.062-6.185-.096.117-2.44.285-3.02 3.318-3.02zm-4.69.364c-.34.792-.544 2.11-.544 3.52 0 2.318.416 3.71 1.345 4.516.954.827 2.496.94 4.02.94 1.465 0 2.35-.123 3.958-.347l.126-.017.016-1.615-.079.014c-.02.003-2.038.352-4.108.352-1.398 0-2.324-.247-2.755-.728-.548-.603-.635-1.493-.638-2.372.444.012 3.006.088 4.423.088 1.295 0 3.56-.165 3.583-.167l.058-.005.003-.057c0-.01.056-.984.056-1.343 0-1.79-.244-2.866-.817-3.596-.807-.986-2.52-1.12-4.088-1.12-1.935 0-3.827.235-4.558 1.937zm13.125-5.035c-.691.669-1.014 1.717-1.014 3.297 0 1.75.447 2.778 1.45 3.335.917.512 2.248.578 3.79.65l.55.029c1.476.074 2.407.135 2.916.459.46.292.622.812.622 1.986 0 1.023-.208 1.59-.718 1.958-.51.365-1.382.53-2.829.53-2.226 0-5.466-.406-5.466-.406l-.01 1.809s2.773.365 5.499.365c2.26 0 3.576-.305 4.402-1.02.823-.71 1.159-1.757 1.159-3.607 0-1.741-.462-2.822-1.455-3.403-.894-.524-2.124-.592-3.55-.672l-1.392-.087-.274-.017c-1.95-.12-2.68-.164-2.68-1.889 0-.98.094-1.632.576-2.06.504-.446 1.454-.646 3.081-.646 2.245 0 4.965.342 4.965.342l.002-1.72-.058-.007c-.03-.003-3.019-.36-4.974-.36-2.492 0-3.737.307-4.592 1.134zM54.891 25c-.384-.506-.454-1.51-.454-3.302 0-1.79.07-2.792.454-3.3.375-.493 1.129-.583 2.48-.583 1.35 0 2.105.09 2.48.584.384.507.453 1.509.453 3.3 0 1.792-.07 2.795-.453 3.3-.375.495-1.13.585-2.48.585-1.351 0-2.105-.09-2.48-.584zm-1.483-7.678c-.748.864-.899 2.315-.899 4.376 0 2.063.151 3.516.9 4.38.775.894 2.146 1.078 3.962 1.078 1.816 0 3.185-.184 3.962-1.079.748-.863.899-2.316.899-4.379 0-2.06-.15-3.512-.9-4.376-.776-.894-2.145-1.08-3.961-1.08-1.816 0-3.187.186-3.963 1.08zm18.936-.948l-.004 8.828c-.39.1-1.53.36-2.716.36-2.245 0-2.584-.346-2.584-2.64v-6.548h-1.86v6.81c0 1.643.243 2.554.842 3.14.6.591 1.53.832 3.207.832.513 0 1.244-.098 1.555-.14l.122-.015c.178-.021.378-.096.707-.235.338-.143.535-.273.543-.277.093-.065.173-.117.249-.117.067 0 .088 0 .113.147l.003-.002c0 .014.072.486.072.486h1.614l-.006-10.63h-1.857zm8.813-.02l-.213.02c-.236.021-.821.304-.94.373-.16.09-.508.26-.59.26-.068 0-.09 0-.114-.149l-.075-.484H77.64v10.63h1.86V18.16c.427-.09 1.675-.325 2.869-.325 1.236 0 1.819.123 2.144.456.322.33.44.916.44 2.163v6.57h1.861v-6.833c0-1.622-.25-2.558-.84-3.13-.586-.575-1.547-.82-3.21-.82-.483 0-1.212.074-1.607.113zm10.975 8.473c-.385-.525-.533-1.402-.533-3.129s.15-2.607.54-3.137c.385-.52 1.026-.725 2.285-.725.936 0 2.078.12 2.803.228v7.094c-.41.105-1.611.384-2.803.384-1.256 0-1.919-.208-2.292-.715zm5.085-12.84s.008 4.4.01 4.553a19.67 19.67 0 00-3.264-.297c-1.727 0-2.889.527-3.552 1.61-.653 1.06-.74 2.54-.74 3.845 0 1.328.086 2.825.724 3.886.635 1.057 1.747 1.572 3.393 1.572.814 0 1.364-.081 1.693-.128l.207-.028c.245-.024.807-.32.842-.337.082-.034.185-.083.285-.133.129-.063.322-.157.367-.159.099 0 .114.015.136.148l.075.484h1.688l.007-15.016h-1.871zm-78.6 1.747c1.403 0 2.208.185 2.606.602l.004.004c.44.439.477 1.091.477 1.838 0 .732-.036 1.377-.477 1.816-.401.42-1.207.607-2.61.607h-4.534v-4.867h4.533zm-6.505-1.747v15.016h1.968l.003-6.678h3.133c.04.056 4.504 6.678 4.504 6.678h2.414l-4.486-6.628s-.022-.048.04-.048c.222 0 .935-.042 1.867-.37a3.005 3.005 0 001.223-.822c.633-.7.94-1.66.94-2.936 0-1.566-.334-2.601-1.052-3.256-.719-.651-1.851-.956-3.568-.956h-6.986zm9.41 2.06l.002.002-.003-.004.001.002zm-8.2 21.907h-1.007a.246.246 0 01-.247-.245v-2.5c0-.135.11-.245.247-.245h1.008c.136 0 .246.11.246.245v2.5c0 .135-.11.245-.246.245zm5.054 0h-1.172a.257.257 0 01-.258-.257v-2.476c0-.142.115-.257.258-.257h1.172c.143 0 .258.115.258.257v2.476a.257.257 0 01-.258.257zm5.054 0h-1.337a.27.27 0 01-.27-.269v-2.452a.27.27 0 01.27-.27h1.337a.27.27 0 01.27.27v2.453a.27.27 0 01-.27.268zm5.053 0h-1.5a.28.28 0 01-.282-.28v-2.43a.28.28 0 01.282-.28h1.5a.28.28 0 01.282.28v2.43a.28.28 0 01-.282.28zm5.054 0h-1.665a.293.293 0 01-.293-.292v-2.406c0-.161.131-.292.293-.292h1.665c.162 0 .293.13.293.292v2.406a.293.293 0 01-.293.292zm5.053 0h-1.829a.304.304 0 01-.305-.304v-2.382c0-.168.137-.304.305-.304h1.83c.168 0 .304.136.304.304v2.382a.305.305 0 01-.305.304zm5.054 0H41.65a.316.316 0 01-.317-.315v-2.36c0-.174.142-.315.317-.315h1.993c.175 0 .316.141.316.315v2.36a.316.316 0 01-.316.315zm5.053 0H46.54a.328.328 0 01-.328-.327v-2.336c0-.18.147-.327.328-.327h2.157c.182 0 .329.146.329.327v2.336c0 .18-.147.327-.329.327zm5.054 0h-2.322a.34.34 0 01-.34-.339v-2.312a.34.34 0 01.34-.34h2.322a.34.34 0 01.34.34v2.312a.34.34 0 01-.34.34zm5.053 0H56.32a.351.351 0 01-.352-.35v-2.29a.35.35 0 01.352-.35h2.485a.35.35 0 01.352.35v2.29a.35.35 0 01-.352.35zm5.054 0H61.22a.363.363 0 01-.364-.362v-2.266c0-.2.163-.362.364-.362h2.638c.2 0 .363.162.363.362v2.266c0 .2-.162.362-.363.362zm52.602 0H66.607a.663.663 0 01-.665-.662v-1.666c0-.366.298-.662.665-.662h49.853c.367 0 .665.296.665.662v1.666a.664.664 0 01-.665.662zM128.293 22.4a.866.866 0 01-.613-.253l-6.913-6.89a.162.162 0 00-.277.115v6.135c0 .476-.374.884-.851.892a.865.865 0 01-.883-.863V12.92c0-.303.145-.595.403-.756a.872.872 0 011.077.12l6.912 6.889c.102.102.278.03.278-.115v-6.135c0-.476.373-.884.85-.893a.866.866 0 01.884.864v8.615a.89.89 0 01-.424.77.869.869 0 01-.443.12zm-12.139-6.05h-2.568c-.478 0-.89.374-.898.851a.866.866 0 00.867.878h1.518c.119 0 .216.097.216.216v2.16c0 .12-.097.216-.216.216h-3.185c-2.017 0-3.643-1.645-3.529-3.652a3.467 3.467 0 013.462-3.26h4.304c.479 0 .891-.374.898-.851a.865.865 0 00-.867-.878H111.9c-2.79 0-5.145 2.16-5.275 4.938-.139 2.97 2.245 5.432 5.196 5.432h4.333c.48 0 .869-.388.869-.867v-4.316a.868.868 0 00-.869-.866z" fill="#fff"/></g><defs><clipPath id="clip0_347_4840"><path fill="#fff" d="M0 0h141.176v48H0z"/></clipPath></defs></svg>