<svg width="151" height="30" fill="none" xmlns="http://www.w3.org/2000/svg"><g id="MED-EL_Logo" clip-path="url(#clip0_347_4789)"><g id="layer1"><g id="g3011"><g id="Clip path group"><mask id="mask0_347_4789" style="mask-type:luminance" maskUnits="userSpaceOnUse" x="-1" y="-1" width="151" height="32"><g id="clipPath3015"><path id="path3017" d="M-.01-.753h149.777v31.15H-.01" fill="#fff"/></g></mask><g mask="url(#mask0_347_4789)"><g id="g3013" fill="#131313"><path id="path3019" d="M98.59 14.024c1.549-.898 2.399-1.663 3.212-2.675a5.65 5.65 0 01-1.87.321c-2.082 0-3.895-1.03-5.07-2.746-.808-1.178-1.058-2.467-1.058-3.724a5.913 5.913 0 012.2-4.604c-4.936.59-8.767 4.802-8.767 9.911a9.96 9.96 0 002.266 6.338c3.19-.262 6.36-1.24 9.086-2.82z"/><path id="path3021" d="M105.64 5.213c.036.37.038.801.038 1.002 0 4.431-3.421 7.776-6.256 9.377a24.206 24.206 0 01-8.305 2.822 9.903 9.903 0 006.08 2.075c5.5 0 9.959-4.47 9.959-9.982a9.95 9.95 0 00-1.516-5.294z"/><path id="path3023" d="M99.547 1.004c-2.256.005-4.091 1.886-4.091 4.196 0 2.309 1.835 4.19 4.093 4.194 2.255-.004 4.09-1.885 4.09-4.194 0-2.31-1.835-4.191-4.092-4.196z"/><path id="path3025" d="M134.029 29.401V2.178h3.22v24.695h12.453V29.4h-15.673z"/><path id="path3027" d="M113.933 29.401V2.178h16.1v2.45h-12.958v9.606h9.854v2.45h-9.854v10.228h13.152v2.49h-16.294z"/><path id="path3029" d="M66.51 6.26h-3.607v19.018h3.606c2.91 0 8.614.584 8.614-9.49 0-10.032-5.703-9.527-8.614-9.527zm-.698 23.141h-8.496V2.178h8.496c4.888 0 15.286-.584 15.286 13.61 0 14.157-10.398 13.613-15.286 13.613z"/><path id="path3031" d="M35.085 29.401V2.178h17.962v4.2H40.75v7.039h8.614v4.122H40.75V25.2h12.57v4.201H35.084z"/><path id="path3033" d="M30.392 2.178v27.223h-5.509L25.35 6.34h-.582L18.287 29.4h-6.362L5.756 6.34h-.659l.194 23.06H.596V2.178h9.39l5.315 20.65h.387l5.588-20.65h9.116z"/></g></g></g></g></g></g><defs><clipPath id="clip0_347_4789"><path fill="#fff" d="M0 0h150.298v30H0z"/></clipPath></defs></svg>