<svg width="162" height="28" fill="none" xmlns="http://www.w3.org/2000/svg"><g clip-path="url(#clip0_347_4821)" fill="#131313"><path d="M50.669 20.61v6.87H28.39V.625h21.76V7.39H37.302v3.227h11.294v6.454H37.302v3.539h13.367zm20.101 6.87l-4.559-7.183-4.559 7.183H51.394l9.636-13.532L51.808.625H61.86l4.56 6.765L70.873.625h9.636l-9.222 12.907 9.844 13.948H70.77zm38.338-1.25c-2.279-1.249-4.041-2.914-5.388-4.996-1.347-2.082-1.968-4.58-1.968-7.182 0-2.706.621-5.1 1.968-7.182 1.347-2.082 3.109-3.852 5.388-4.996 2.28-1.25 4.87-1.77 7.772-1.77 2.901 0 5.491.625 7.771 1.77 2.28 1.249 4.041 2.914 5.388 4.996 1.347 2.082 1.969 4.58 1.969 7.182 0 2.706-.622 5.1-1.969 7.182-1.347 2.082-3.108 3.851-5.388 4.996-2.28 1.25-4.87 1.77-7.771 1.77-2.902 0-5.492-.52-7.772-1.77zm10.777-6.349c.932-.52 1.657-1.353 2.176-2.29a7.748 7.748 0 00.828-3.539c0-1.353-.31-2.498-.828-3.54a5.177 5.177 0 00-2.176-2.289c-.933-.52-1.866-.833-3.005-.833-1.14 0-2.176.313-3.005.833-.933.52-1.658 1.353-2.176 2.29a7.749 7.749 0 00-.829 3.539 7.75 7.75 0 00.829 3.539 5.167 5.167 0 002.176 2.29c.932.52 1.865.833 3.005.833 1.139 0 2.072-.208 3.005-.833zM161.538.625V27.48h-7.356L144.027 15.3v12.18h-8.807V.625h7.357l10.154 12.178V.625h8.807z"/><path d="M83.826.625l-5.077 6.973h6.113V27.48h9.015V7.598h7.771V.625H83.826zM19.998 19.152c1.658-.832 2.901-1.978 3.73-3.435.83-1.457 1.347-3.122 1.347-4.996 0-2.082-.518-3.851-1.45-5.413-1.037-1.561-2.384-2.706-4.249-3.539C17.511.937 15.44.52 12.952.52H0v26.855h9.015V20.61h2.383l4.559 6.765h9.636l-5.595-8.223zm-4.974-6.141c-.621.52-1.554.833-2.797.833H9.015V7.598h3.315c1.244 0 2.176.313 2.798.833.622.52.933 1.353.933 2.29-.104 1.04-.415 1.77-1.037 2.29z"/></g><defs><clipPath id="clip0_347_4821"><path fill="#fff" d="M0 0h161.538v28H0z"/></clipPath></defs></svg>